<mxfile host="app.diagrams.net" modified="2023-12-17T17:21:00.423Z" agent="Mozilla/5.0 (Windows NT 10.0; Win64; x64) AppleWebKit/537.36 (KHTML, like Gecko) Chrome/120.0.0.0 Safari/537.36 Edg/120.0.0.0" etag="nBX1lv2VNcloFQ4QKk0_" version="22.1.11" type="github">
  <diagram id="C5RBs43oDa-KdzZeNtuy" name="Page-1">
    <mxGraphModel dx="1015" dy="543" grid="1" gridSize="1" guides="1" tooltips="1" connect="1" arrows="1" fold="1" page="1" pageScale="1" pageWidth="827" pageHeight="1169" math="0" shadow="0">
      <root>
        <mxCell id="WIyWlLk6GJQsqaUBKTNV-0" />
        <mxCell id="WIyWlLk6GJQsqaUBKTNV-1" parent="WIyWlLk6GJQsqaUBKTNV-0" />
        <mxCell id="PpvjPfuKS6hcIcj3usqk-0" value="" style="rounded=0;html=1;jettySize=auto;orthogonalLoop=1;fontSize=11;endArrow=classicThin;endFill=1;endSize=8;strokeWidth=1;shadow=0;labelBackgroundColor=none;edgeStyle=orthogonalEdgeStyle;movable=1;resizable=1;rotatable=1;deletable=1;editable=1;locked=0;connectable=1;entryX=0.5;entryY=0;entryDx=0;entryDy=0;" parent="WIyWlLk6GJQsqaUBKTNV-1" source="PpvjPfuKS6hcIcj3usqk-1" target="PpvjPfuKS6hcIcj3usqk-4" edge="1">
          <mxGeometry relative="1" as="geometry">
            <mxPoint x="485.99" y="193" as="targetPoint" />
          </mxGeometry>
        </mxCell>
        <mxCell id="PpvjPfuKS6hcIcj3usqk-1" value="开始" style="rounded=1;whiteSpace=wrap;html=1;fontSize=12;glass=0;strokeWidth=1;shadow=0;fillColor=#eeeeee;strokeColor=#36393d;" parent="WIyWlLk6GJQsqaUBKTNV-1" vertex="1">
          <mxGeometry x="425.99" y="119" width="120" height="40" as="geometry" />
        </mxCell>
        <mxCell id="PpvjPfuKS6hcIcj3usqk-3" value="" style="edgeStyle=orthogonalEdgeStyle;rounded=0;orthogonalLoop=1;jettySize=auto;html=1;endSize=8;endArrow=classicThin;endFill=1;" parent="WIyWlLk6GJQsqaUBKTNV-1" source="PpvjPfuKS6hcIcj3usqk-4" target="PpvjPfuKS6hcIcj3usqk-6" edge="1">
          <mxGeometry relative="1" as="geometry" />
        </mxCell>
        <mxCell id="PpvjPfuKS6hcIcj3usqk-4" value="socket开始接收请求" style="rounded=0;whiteSpace=wrap;html=1;fillColor=#dae8fc;strokeColor=#6c8ebf;" parent="WIyWlLk6GJQsqaUBKTNV-1" vertex="1">
          <mxGeometry x="423.49" y="199" width="125" height="40" as="geometry" />
        </mxCell>
        <mxCell id="PpvjPfuKS6hcIcj3usqk-5" value="" style="edgeStyle=orthogonalEdgeStyle;rounded=0;orthogonalLoop=1;jettySize=auto;html=1;exitX=0.5;exitY=1;exitDx=0;exitDy=0;entryX=0.5;entryY=0;entryDx=0;entryDy=0;endArrow=classicThin;endFill=1;endSize=8;" parent="WIyWlLk6GJQsqaUBKTNV-1" source="PpvjPfuKS6hcIcj3usqk-18" target="PpvjPfuKS6hcIcj3usqk-12" edge="1">
          <mxGeometry relative="1" as="geometry">
            <mxPoint x="381" y="470" as="sourcePoint" />
            <mxPoint x="484.5" y="433" as="targetPoint" />
          </mxGeometry>
        </mxCell>
        <mxCell id="PpvjPfuKS6hcIcj3usqk-19" value="" style="edgeStyle=orthogonalEdgeStyle;rounded=0;orthogonalLoop=1;jettySize=auto;html=1;endSize=8;endArrow=classicThin;endFill=1;" parent="WIyWlLk6GJQsqaUBKTNV-1" source="PpvjPfuKS6hcIcj3usqk-6" target="PpvjPfuKS6hcIcj3usqk-18" edge="1">
          <mxGeometry relative="1" as="geometry" />
        </mxCell>
        <mxCell id="PpvjPfuKS6hcIcj3usqk-6" value="接收数据解析为字符串" style="rounded=0;whiteSpace=wrap;html=1;fillColor=#dae8fc;strokeColor=#6c8ebf;" parent="WIyWlLk6GJQsqaUBKTNV-1" vertex="1">
          <mxGeometry x="423.49" y="279" width="125" height="40" as="geometry" />
        </mxCell>
        <mxCell id="PpvjPfuKS6hcIcj3usqk-22" value="" style="edgeStyle=orthogonalEdgeStyle;rounded=0;orthogonalLoop=1;jettySize=auto;html=1;endSize=8;endArrow=classicThin;endFill=1;" parent="WIyWlLk6GJQsqaUBKTNV-1" source="PpvjPfuKS6hcIcj3usqk-7" target="PpvjPfuKS6hcIcj3usqk-21" edge="1">
          <mxGeometry relative="1" as="geometry" />
        </mxCell>
        <mxCell id="PpvjPfuKS6hcIcj3usqk-7" value="打印信息" style="rounded=0;whiteSpace=wrap;html=1;fillColor=#dae8fc;strokeColor=#6c8ebf;" parent="WIyWlLk6GJQsqaUBKTNV-1" vertex="1">
          <mxGeometry x="424.62" y="544" width="125" height="40" as="geometry" />
        </mxCell>
        <mxCell id="PpvjPfuKS6hcIcj3usqk-9" value="" style="edgeStyle=orthogonalEdgeStyle;rounded=0;orthogonalLoop=1;jettySize=auto;html=1;exitX=1;exitY=0.5;exitDx=0;exitDy=0;endArrow=classicThin;endFill=1;endSize=8;" parent="WIyWlLk6GJQsqaUBKTNV-1" source="PpvjPfuKS6hcIcj3usqk-12" edge="1">
          <mxGeometry relative="1" as="geometry">
            <mxPoint x="487" y="176" as="targetPoint" />
            <mxPoint x="536.25" y="452" as="sourcePoint" />
            <Array as="points">
              <mxPoint x="617" y="470" />
              <mxPoint x="617" y="712" />
              <mxPoint x="338" y="712" />
              <mxPoint x="338" y="176" />
            </Array>
          </mxGeometry>
        </mxCell>
        <mxCell id="PpvjPfuKS6hcIcj3usqk-10" value="&lt;font style=&quot;font-size: 10px;&quot;&gt;N&lt;/font&gt;" style="text;html=1;strokeColor=none;fillColor=default;align=center;verticalAlign=middle;whiteSpace=wrap;rounded=0;" parent="WIyWlLk6GJQsqaUBKTNV-1" vertex="1">
          <mxGeometry x="609" y="605" width="20" height="18" as="geometry" />
        </mxCell>
        <mxCell id="PpvjPfuKS6hcIcj3usqk-11" value="" style="edgeStyle=orthogonalEdgeStyle;rounded=0;orthogonalLoop=1;jettySize=auto;html=1;endSize=8;endArrow=classicThin;endFill=1;" parent="WIyWlLk6GJQsqaUBKTNV-1" source="PpvjPfuKS6hcIcj3usqk-12" target="PpvjPfuKS6hcIcj3usqk-7" edge="1">
          <mxGeometry relative="1" as="geometry" />
        </mxCell>
        <mxCell id="PpvjPfuKS6hcIcj3usqk-12" value="解析或&lt;br&gt;返回失败？" style="rhombus;whiteSpace=wrap;html=1;shadow=0;fontFamily=Helvetica;fontSize=12;align=center;strokeWidth=1;spacing=6;spacingTop=-4;fillColor=#d5e8d4;strokeColor=#82b366;" parent="WIyWlLk6GJQsqaUBKTNV-1" vertex="1">
          <mxGeometry x="437" y="435" width="100.25" height="70" as="geometry" />
        </mxCell>
        <mxCell id="PpvjPfuKS6hcIcj3usqk-13" value="&lt;font style=&quot;font-size: 10px;&quot;&gt;Y&lt;/font&gt;" style="text;html=1;strokeColor=none;fillColor=default;align=center;verticalAlign=middle;whiteSpace=wrap;rounded=0;" parent="WIyWlLk6GJQsqaUBKTNV-1" vertex="1">
          <mxGeometry x="477" y="511" width="20" height="18" as="geometry" />
        </mxCell>
        <mxCell id="PpvjPfuKS6hcIcj3usqk-18" value="服务端返回消息" style="rounded=0;whiteSpace=wrap;html=1;fillColor=#dae8fc;strokeColor=#6c8ebf;" parent="WIyWlLk6GJQsqaUBKTNV-1" vertex="1">
          <mxGeometry x="423.49" y="359" width="125" height="40" as="geometry" />
        </mxCell>
        <mxCell id="PpvjPfuKS6hcIcj3usqk-23" value="" style="edgeStyle=orthogonalEdgeStyle;rounded=0;orthogonalLoop=1;jettySize=auto;html=1;exitX=0.5;exitY=1;exitDx=0;exitDy=0;endSize=8;endArrow=classicThin;endFill=1;" parent="WIyWlLk6GJQsqaUBKTNV-1" source="PpvjPfuKS6hcIcj3usqk-21" edge="1">
          <mxGeometry relative="1" as="geometry">
            <mxPoint x="487" y="712" as="targetPoint" />
          </mxGeometry>
        </mxCell>
        <mxCell id="PpvjPfuKS6hcIcj3usqk-21" value="关闭连接" style="rounded=0;whiteSpace=wrap;html=1;fillColor=#dae8fc;strokeColor=#6c8ebf;" parent="WIyWlLk6GJQsqaUBKTNV-1" vertex="1">
          <mxGeometry x="424.62" y="626" width="125" height="40" as="geometry" />
        </mxCell>
      </root>
    </mxGraphModel>
  </diagram>
</mxfile>
